<svg id="Layer_1" data-name="Layer 1" xmlns="http://www.w3.org/2000/svg" viewBox="0 0 511 468.43"><defs><style>.cls-1{fill:#eceff1;}.cls-2{fill:#ffc107;}.cls-3{fill:#388e3c;}.cls-4{fill:#4caf50;}</style></defs><path class="cls-1" d="M133.06,394.56a79.73,79.73,0,0,1-75.41-54.32l-.75-2.45a77.89,77.89,0,0,1-3.68-23.08V169.54L1.56,342a48.36,48.36,0,0,0,33.9,58.66L364.7,488.8A49.05,49.05,0,0,0,377,490.37c21.2,0,40.58-14.07,46-34.81l19.18-61Z" transform="translate(0 -21.94)"/><path class="cls-1" d="M511,69.85V314.71a48,48,0,0,1-47.91,47.91h-330a54.49,54.49,0,0,1-6.17-.43,47.62,47.62,0,0,1-41.52-43.64,23.55,23.55,0,0,1-.21-3.84V69.85a48,48,0,0,1,47.9-47.91h330A48,48,0,0,1,511,69.85Z" transform="translate(0 -21.94)"/><path class="cls-2" d="M234.2,128.41a42.59,42.59,0,1,1-42.58-42.59A42.58,42.58,0,0,1,234.2,128.41Z" transform="translate(0 -21.94)"/><path class="cls-3" d="M511,254.88v59.83a48,48,0,0,1-47.91,47.91h-330a54.49,54.49,0,0,1-6.17-.43L346.2,142.89a37.52,37.52,0,0,1,52.8,0Z" transform="translate(0 -21.94)"/><path class="cls-4" d="M384.52,362.62H133.06a54.49,54.49,0,0,1-6.17-.43,47.62,47.62,0,0,1-41.52-43.64L186.51,217.41a37.52,37.52,0,0,1,52.8,0Z" transform="translate(0 -21.94)"/></svg>