<?xml version="1.0" encoding="utf-8"?>
<!-- Generator: Adobe Illustrator 25.1.0, SVG Export Plug-In . SVG Version: 6.00 Build 0)  -->
<svg version="1.1" id="Capa_1" xmlns="http://www.w3.org/2000/svg" xmlns:xlink="http://www.w3.org/1999/xlink" x="0px" y="0px"
	 viewBox="0 0 512 512" style="enable-background:new 0 0 512 512;" xml:space="preserve">
<style type="text/css">
	.st0{fill:url(#SVGID_1_);}
	.st1{fill:url(#SVGID_2_);}
	.st2{fill:url(#SVGID_3_);}
	.st3{fill:url(#SVGID_4_);}
	.st4{fill:url(#SVGID_5_);}
	.st5{fill:url(#SVGID_6_);}
	.st6{fill:url(#SVGID_7_);}
	.st7{fill:url(#SVGID_8_);}
	.st8{fill:url(#SVGID_9_);}
	.st9{fill:url(#SVGID_10_);}
</style>
<g>
	
		<linearGradient id="SVGID_1_" gradientUnits="userSpaceOnUse" x1="190.0969" y1="407.3465" x2="515.4649" y2="81.9785" gradientTransform="matrix(0.9979 0.1104 0.1104 -0.9979 -103.9116 485.102)">
		<stop  offset="0" style="stop-color:#FFA936"/>
		<stop  offset="0.4112" style="stop-color:#FF8548"/>
		<stop  offset="0.7781" style="stop-color:#FF6C54"/>
		<stop  offset="1" style="stop-color:#FF6359"/>
	</linearGradient>
	<path class="st0" d="M428.6,472.4l-388.4-43c-18.7-2.1-32.1-18.9-30.1-37.6L45.8,69.7C47.9,51,64.7,37.5,83.4,39.6l388.4,43
		c18.7,2.1,32.1,18.9,30.1,37.6l-35.7,322.1C464.1,461,447.3,474.5,428.6,472.4L428.6,472.4z"/>
	
		<linearGradient id="SVGID_2_" gradientUnits="userSpaceOnUse" x1="490.3268" y1="353.5195" x2="466.2698" y2="348.2125" gradientTransform="matrix(1.0039 0 0 -1.0039 0.1608 514.5443)">
		<stop  offset="0" style="stop-color:#F82814;stop-opacity:0"/>
		<stop  offset="1" style="stop-color:#C0272D"/>
	</linearGradient>
	<path class="st1" d="M501.9,120.2l-14.1,127L456.5,81l15.3,1.7C490.5,84.7,503.9,101.5,501.9,120.2L501.9,120.2z"/>
	
		<linearGradient id="SVGID_3_" gradientUnits="userSpaceOnUse" x1="-15.7486" y1="403.1515" x2="309.6194" y2="77.7835" gradientTransform="matrix(0.9869 -0.1857 -0.1857 -0.9869 181.0028 537.9125)">
		<stop  offset="0" style="stop-color:#CDEC7A"/>
		<stop  offset="0.2157" style="stop-color:#B0E995"/>
		<stop  offset="0.5613" style="stop-color:#87E4BB"/>
		<stop  offset="0.8347" style="stop-color:#6EE1D2"/>
		<stop  offset="1" style="stop-color:#65E0DB"/>
	</linearGradient>
	<path class="st2" d="M484.3,412.6l-384,72.2c-18.5,3.5-36.2-8.7-39.7-27.1L0.6,139.2c-3.5-18.5,8.7-36.2,27.1-39.7l384-72.2
		c18.5-3.5,36.2,8.7,39.7,27.1l59.9,318.5C514.9,391.3,502.7,409.1,484.3,412.6z"/>
	
		<linearGradient id="SVGID_4_" gradientUnits="userSpaceOnUse" x1="491.5219" y1="255.9889" x2="450.4768" y2="255.9889" gradientTransform="matrix(1.0039 0 0 -1.0039 0.1608 514.5443)">
		<stop  offset="0" style="stop-color:#CDEC7A;stop-opacity:0"/>
		<stop  offset="0.2354" style="stop-color:#9AD57D;stop-opacity:0.235"/>
		<stop  offset="0.6035" style="stop-color:#51B482;stop-opacity:0.604"/>
		<stop  offset="0.8679" style="stop-color:#239F85;stop-opacity:0.868"/>
		<stop  offset="1" style="stop-color:#119786"/>
	</linearGradient>
	<path class="st3" d="M459.7,97.9v319.2l24.6-4.6c18.5-3.5,30.6-21.3,27.1-39.7L459.7,97.9z"/>
	
		<linearGradient id="SVGID_5_" gradientUnits="userSpaceOnUse" x1="176.5713" y1="45.6174" x2="176.5713" y2="69.9334" gradientTransform="matrix(1.0039 0 0 -1.0039 0.1608 514.5443)">
		<stop  offset="0" style="stop-color:#CDEC7A;stop-opacity:0"/>
		<stop  offset="0.2354" style="stop-color:#9AD57D;stop-opacity:0.235"/>
		<stop  offset="0.6035" style="stop-color:#51B482;stop-opacity:0.604"/>
		<stop  offset="0.8679" style="stop-color:#239F85;stop-opacity:0.868"/>
		<stop  offset="1" style="stop-color:#119786"/>
	</linearGradient>
	<path class="st4" d="M58.7,447.9l1.8,9.7c3.5,18.5,21.3,30.6,39.7,27.1l195.9-36.9L58.7,447.9z"/>
	<g>
		
			<linearGradient id="SVGID_6_" gradientUnits="userSpaceOnUse" x1="88.1036" y1="400.7812" x2="413.4716" y2="75.4131" gradientTransform="matrix(1.0039 0 0 -1.0039 0.1608 514.5443)">
			<stop  offset="0" style="stop-color:#F8F6FB"/>
			<stop  offset="1" style="stop-color:#EFDCFB"/>
		</linearGradient>
		<path class="st5" d="M425.7,449.9H34.9c-18.8,0-34-15.2-34-34V91.8c0-18.8,15.2-34,34-34h390.8c18.8,0,34,15.2,34,34v324.1
			C459.7,434.7,444.5,449.9,425.7,449.9L425.7,449.9z"/>
		
			<linearGradient id="SVGID_7_" gradientUnits="userSpaceOnUse" x1="112.6082" y1="411.3796" x2="429.9521" y2="-1.4864" gradientTransform="matrix(1.0039 0 0 -1.0039 0.1608 514.5443)">
			<stop  offset="0" style="stop-color:#18CEFB"/>
			<stop  offset="0.2969" style="stop-color:#2BB9F9"/>
			<stop  offset="0.7345" style="stop-color:#42A0F7"/>
			<stop  offset="1" style="stop-color:#4A97F6"/>
		</linearGradient>
		<path class="st6" d="M393.8,418H66.8c-15.7,0-28.5-12.7-28.5-28.5V118.3c0-15.7,12.7-28.5,28.5-28.5h327.1
			c15.7,0,28.5,12.7,28.5,28.5v271.2C422.3,405.2,409.5,418,393.8,418z"/>
		<g>
			
				<linearGradient id="SVGID_8_" gradientUnits="userSpaceOnUse" x1="75.4278" y1="196.0043" x2="214.4558" y2="15.1283" gradientTransform="matrix(1.0039 0 0 -1.0039 0.1608 514.5443)">
				<stop  offset="0" style="stop-color:#CDEC7A"/>
				<stop  offset="0.2154" style="stop-color:#B0E995;stop-opacity:0.784"/>
				<stop  offset="0.5604" style="stop-color:#87E4BB;stop-opacity:0.439"/>
				<stop  offset="0.8334" style="stop-color:#6EE1D2;stop-opacity:0.165"/>
				<stop  offset="0.9985" style="stop-color:#65E0DB;stop-opacity:0"/>
			</linearGradient>
			<path class="st7" d="M253.1,418H66.8c-15.7,0-28.5-12.7-28.5-28.5V345l47.3-57.5c15.6-19,44.6-19,60.2,0l29.4,35.8L253.1,418z"/>
			
				<linearGradient id="SVGID_9_" gradientUnits="userSpaceOnUse" x1="198.6612" y1="224.0599" x2="366.3382" y2="5.9119" gradientTransform="matrix(1.0039 0 0 -1.0039 0.1608 514.5443)">
				<stop  offset="0" style="stop-color:#CDEC7A"/>
				<stop  offset="0.2157" style="stop-color:#B0E995"/>
				<stop  offset="0.5613" style="stop-color:#87E4BB"/>
				<stop  offset="0.8347" style="stop-color:#6EE1D2"/>
				<stop  offset="1" style="stop-color:#65E0DB"/>
			</linearGradient>
			<path class="st8" d="M422.3,318v71.5c0,15.7-12.8,28.5-28.5,28.5H97.4l77.8-94.6l95.6-116.2c15.6-19,44.6-19,60.2,0L422.3,318z"
				/>
		</g>
		
			<linearGradient id="SVGID_10_" gradientUnits="userSpaceOnUse" x1="117.0824" y1="380.6128" x2="171.4584" y2="309.8688" gradientTransform="matrix(1.0039 0 0 -1.0039 0.1608 514.5443)">
			<stop  offset="0" style="stop-color:#FFD945"/>
			<stop  offset="0.3043" style="stop-color:#FFCD3E"/>
			<stop  offset="0.8558" style="stop-color:#FFAD2B"/>
			<stop  offset="1" style="stop-color:#FFA325"/>
		</linearGradient>
		<circle class="st9" cx="137.8" cy="158.5" r="40.4"/>
	</g>
</g>
</svg>
